<svg version="1.1" id="Layer_1" xmlns="http://www.w3.org/2000/svg" xmlns:xlink="http://www.w3.org/1999/xlink" x="0px" y="0px"
	 width="100%" viewBox="330 365 365 290" enable-background="new 330 365 365 290" xml:space="preserve">
<path fill="#024652" opacity="1.000000" stroke="none" 
	d="
M594.294678,494.979553 
	C596.633179,513.967590 592.709351,531.150635 582.892212,546.975525 
	C581.351135,549.459656 581.675537,551.044922 583.672729,552.999817 
	C589.981873,559.175537 596.153137,565.492676 602.352966,571.779480 
	C603.741089,573.187012 605.397583,574.402954 606.258301,577.055176 
	C599.027832,582.682556 591.530701,588.491760 587.983093,597.170898 
	C585.020325,597.362732 584.062988,595.563049 582.813171,594.334106 
	C576.279785,587.909790 569.717285,581.510925 563.344482,574.929382 
	C560.992798,572.500671 559.125122,572.055298 556.065002,573.951233 
	C542.883667,582.118042 528.435425,586.303894 512.919250,586.175232 
	C499.219025,586.061646 486.227325,582.826477 474.214539,576.043762 
	C473.225494,575.485352 472.150177,575.079834 471.226501,574.654663 
	C469.018280,575.809387 468.595184,577.897156 467.762604,579.644775 
	C458.738281,598.587891 449.681305,617.516418 440.843811,636.546814 
	C439.219513,640.044495 437.288971,641.710205 433.296173,641.416260 
	C425.345581,640.831055 417.299896,642.226440 409.394348,640.500061 
	C388.352966,635.905212 374.074860,618.520508 373.799133,596.908081 
	C373.614258,582.415527 373.452789,567.910950 373.835663,553.426392 
	C374.163361,541.028992 366.020081,526.620239 349.296478,526.186523 
	C346.643829,526.117798 345.421021,525.119812 345.490997,522.252014 
	C345.661682,515.258484 345.666748,508.257263 345.555511,501.262024 
	C345.507141,498.221741 346.423615,496.958710 349.720764,496.576569 
	C365.572998,494.739075 373.691101,485.472015 373.749725,469.517090 
	C373.800537,455.688843 373.471191,441.852295 373.844971,428.033905 
	C374.285645,411.742126 380.527740,398.298340 394.819122,389.401154 
	C400.997589,385.554718 407.735046,383.131073 415.011078,382.797882 
	C421.661835,382.493317 428.336945,382.752319 435.000275,382.674530 
	C437.734467,382.642639 439.442810,383.340698 439.397125,386.555969 
	C439.292969,393.884888 439.338989,401.216705 439.393921,408.546814 
	C439.414825,411.337036 438.039307,412.393372 435.392670,412.376282 
	C430.394928,412.344055 425.391571,412.268616 420.399597,412.454620 
	C409.411926,412.864044 404.247681,418.067108 404.127716,429.028778 
	C403.987366,441.856018 403.982147,454.686584 404.092102,467.514221 
	C404.229095,483.496155 400.398346,497.858643 387.963196,508.917969 
	C387.370239,509.445374 386.988159,510.209991 386.538513,510.822388 
	C387.368134,513.554993 389.657776,514.888367 391.253632,516.740051 
	C400.811005,527.829529 403.971313,540.964478 403.953003,555.216370 
	C403.935028,569.209351 403.906677,583.205994 404.212494,597.193848 
	C404.361023,603.985718 408.596283,608.919617 414.647339,610.970764 
	C417.776825,612.031494 419.578949,611.246582 421.001373,608.227234 
	C429.092438,591.052612 437.257050,573.911804 445.553070,556.835449 
	C446.852173,554.161438 446.328857,552.305481 444.832489,549.996582 
	C437.376953,538.492920 432.761871,525.945984 431.551727,512.225403 
	C429.686615,491.078979 434.935577,471.776093 447.885254,455.050842 
	C467.077271,430.263306 492.989746,419.095764 523.826538,423.200928 
	C556.244873,427.516663 578.257446,446.554413 589.990173,477.125519 
	C592.128418,482.696808 593.678284,488.524963 594.294678,494.979553 
M471.910736,535.579041 
	C485.680695,552.962402 503.777588,559.678284 525.092651,554.707581 
	C554.563232,547.835022 571.048584,517.917542 562.464661,488.918182 
	C555.289551,464.678589 529.062195,448.552246 505.057983,452.702423 
	C468.714172,458.986115 447.490814,502.300537 471.910736,535.579041 
z"/>
<path fill="#024652" opacity="1.000000" stroke="none" 
	d="
M622.657104,464.996277 
	C622.654907,453.169373 622.678650,441.841461 622.643921,430.513794 
	C622.606018,418.159149 616.995300,412.538818 604.603882,412.412048 
	C599.773376,412.362640 594.941528,412.348419 590.111389,412.404999 
	C587.612244,412.434265 586.526733,411.455780 586.573425,408.841888 
	C586.707275,401.347656 586.664795,393.850342 586.698608,386.354218 
	C586.706543,384.586853 586.930359,382.784698 589.221069,382.824219 
	C600.477661,383.018341 611.872925,381.168854 622.857910,385.340179 
	C640.902344,392.192108 652.017883,407.786285 652.228577,427.113770 
	C652.381104,441.105347 652.245850,455.099884 652.286926,469.092926 
	C652.332825,484.738281 660.818970,494.639069 676.210388,496.486572 
	C679.833740,496.921509 681.153625,498.099060 681.059387,501.673187 
	C680.888062,508.165283 680.971802,514.665833 681.043030,521.161926 
	C681.080872,524.610718 679.796082,526.109314 676.072876,526.337036 
	C662.576233,527.162415 652.680176,537.626038 652.364136,551.263733 
	C652.159668,560.088135 652.316406,568.920837 652.279968,577.749634 
	C652.276672,578.551941 652.043335,579.353333 651.936584,580.029480 
	C650.191223,580.888794 649.223633,579.719666 648.160706,579.024719 
	C641.592590,574.730286 634.457092,572.177734 626.555481,572.336304 
	C623.210876,572.403381 622.278870,571.133301 622.445374,567.879578 
	C622.751587,561.896118 622.713074,555.888794 622.641174,549.893555 
	C622.472107,535.802368 627.730347,523.951416 637.346497,513.894775 
	C638.960999,512.206421 640.518982,510.827332 638.107910,508.589600 
	C625.516541,496.903778 621.674133,482.059570 622.657104,464.996277 
z"/>
<path fill="#7F239D" opacity="1.000000" stroke="none" 
	d="
M642.008911,593.891357 
	C658.574585,608.206421 654.411072,633.307190 634.427856,640.054565 
	C624.122620,643.534119 614.533691,641.266968 606.932495,633.293335 
	C599.047058,625.021545 597.320740,615.116455 601.666504,604.638611 
	C605.864868,594.516296 613.771301,589.128662 624.883179,588.589172 
	C631.141235,588.285400 636.731506,589.904968 642.008911,593.891357 
z"/>
<path fill="#024652" opacity="1.000000" stroke="none" 
	d="
M502.688782,533.678284 
	C485.251282,526.916748 477.364960,508.953308 484.215912,492.301788 
	C490.265930,477.596954 507.238586,468.957153 520.120850,474.470490 
	C515.703735,481.924316 512.437500,489.741333 520.359619,496.816925 
	C527.606567,503.289520 535.034607,501.173492 541.941589,495.839172 
	C546.198242,502.791962 544.295288,514.848328 537.951233,523.171204 
	C529.811462,533.849915 517.194702,537.704651 502.688782,533.678284 
z"/>
</svg>
